<mxfile host="app.diagrams.net" agent="Mozilla/5.0 (Windows NT 10.0; Win64; x64) AppleWebKit/537.36 (KHTML, like Gecko) Chrome/141.0.0.0 Safari/537.36" version="28.2.5">
  <diagram name="Página-1" id="8Iw2187nsq1q3JchT0BX">
    <mxGraphModel dx="969" dy="479" grid="1" gridSize="10" guides="1" tooltips="1" connect="1" arrows="1" fold="1" page="1" pageScale="1" pageWidth="827" pageHeight="1169" math="0" shadow="0">
      <root>
        <mxCell id="0" />
        <mxCell id="1" parent="0" />
        <mxCell id="VzOfpZ_Bs2Y8hGM9rfYh-173" value="PRODUTO" style="whiteSpace=wrap;html=1;align=center;fontFamily=Helvetica;fontSize=11;fontColor=default;labelBackgroundColor=default;" vertex="1" parent="1">
          <mxGeometry x="620" y="780" width="100" height="40" as="geometry" />
        </mxCell>
        <mxCell id="VzOfpZ_Bs2Y8hGM9rfYh-174" value="cod_produto" style="ellipse;whiteSpace=wrap;html=1;align=center;fontStyle=4;fontFamily=Helvetica;fontSize=11;fontColor=default;labelBackgroundColor=default;" vertex="1" parent="1">
          <mxGeometry x="500" y="700" width="100" height="40" as="geometry" />
        </mxCell>
        <mxCell id="VzOfpZ_Bs2Y8hGM9rfYh-180" style="edgeStyle=orthogonalEdgeStyle;shape=connector;rounded=0;orthogonalLoop=1;jettySize=auto;html=1;entryX=0;entryY=0.25;entryDx=0;entryDy=0;strokeColor=default;align=center;verticalAlign=middle;fontFamily=Helvetica;fontSize=11;fontColor=default;labelBackgroundColor=default;endArrow=none;endFill=0;" edge="1" parent="1" source="VzOfpZ_Bs2Y8hGM9rfYh-175" target="VzOfpZ_Bs2Y8hGM9rfYh-173">
          <mxGeometry relative="1" as="geometry" />
        </mxCell>
        <mxCell id="VzOfpZ_Bs2Y8hGM9rfYh-175" value="descrição" style="ellipse;whiteSpace=wrap;html=1;align=center;fontFamily=Helvetica;fontSize=11;fontColor=default;labelBackgroundColor=default;" vertex="1" parent="1">
          <mxGeometry x="470" y="750" width="100" height="40" as="geometry" />
        </mxCell>
        <mxCell id="VzOfpZ_Bs2Y8hGM9rfYh-176" value="preço" style="ellipse;whiteSpace=wrap;html=1;align=center;fontFamily=Helvetica;fontSize=11;fontColor=default;labelBackgroundColor=default;" vertex="1" parent="1">
          <mxGeometry x="460" y="800" width="100" height="40" as="geometry" />
        </mxCell>
        <mxCell id="VzOfpZ_Bs2Y8hGM9rfYh-178" style="edgeStyle=orthogonalEdgeStyle;shape=connector;rounded=0;orthogonalLoop=1;jettySize=auto;html=1;strokeColor=default;align=center;verticalAlign=middle;fontFamily=Helvetica;fontSize=11;fontColor=default;labelBackgroundColor=default;endArrow=none;endFill=0;entryX=0.25;entryY=1;entryDx=0;entryDy=0;" edge="1" parent="1" source="VzOfpZ_Bs2Y8hGM9rfYh-177" target="VzOfpZ_Bs2Y8hGM9rfYh-173">
          <mxGeometry relative="1" as="geometry">
            <mxPoint x="660" y="850" as="targetPoint" />
          </mxGeometry>
        </mxCell>
        <mxCell id="VzOfpZ_Bs2Y8hGM9rfYh-177" value="estoque" style="ellipse;whiteSpace=wrap;html=1;align=center;fontFamily=Helvetica;fontSize=11;fontColor=default;labelBackgroundColor=default;" vertex="1" parent="1">
          <mxGeometry x="510" y="850" width="100" height="40" as="geometry" />
        </mxCell>
        <mxCell id="VzOfpZ_Bs2Y8hGM9rfYh-179" style="edgeStyle=orthogonalEdgeStyle;shape=connector;rounded=0;orthogonalLoop=1;jettySize=auto;html=1;entryX=-0.01;entryY=0.892;entryDx=0;entryDy=0;entryPerimeter=0;strokeColor=default;align=center;verticalAlign=middle;fontFamily=Helvetica;fontSize=11;fontColor=default;labelBackgroundColor=default;endArrow=none;endFill=0;" edge="1" parent="1" source="VzOfpZ_Bs2Y8hGM9rfYh-176" target="VzOfpZ_Bs2Y8hGM9rfYh-173">
          <mxGeometry relative="1" as="geometry" />
        </mxCell>
        <mxCell id="VzOfpZ_Bs2Y8hGM9rfYh-181" style="edgeStyle=orthogonalEdgeStyle;shape=connector;rounded=0;orthogonalLoop=1;jettySize=auto;html=1;entryX=0.082;entryY=-0.05;entryDx=0;entryDy=0;entryPerimeter=0;strokeColor=default;align=center;verticalAlign=middle;fontFamily=Helvetica;fontSize=11;fontColor=default;labelBackgroundColor=default;endArrow=none;endFill=0;" edge="1" parent="1" source="VzOfpZ_Bs2Y8hGM9rfYh-174" target="VzOfpZ_Bs2Y8hGM9rfYh-173">
          <mxGeometry relative="1" as="geometry" />
        </mxCell>
        <mxCell id="VzOfpZ_Bs2Y8hGM9rfYh-188" style="edgeStyle=orthogonalEdgeStyle;shape=connector;rounded=0;orthogonalLoop=1;jettySize=auto;html=1;entryX=0.5;entryY=0;entryDx=0;entryDy=0;strokeColor=default;align=center;verticalAlign=middle;fontFamily=Helvetica;fontSize=11;fontColor=default;labelBackgroundColor=default;endArrow=none;endFill=0;" edge="1" parent="1" source="VzOfpZ_Bs2Y8hGM9rfYh-183" target="VzOfpZ_Bs2Y8hGM9rfYh-185">
          <mxGeometry relative="1" as="geometry" />
        </mxCell>
        <mxCell id="VzOfpZ_Bs2Y8hGM9rfYh-189" style="edgeStyle=orthogonalEdgeStyle;shape=connector;rounded=0;orthogonalLoop=1;jettySize=auto;html=1;entryX=0.5;entryY=0;entryDx=0;entryDy=0;strokeColor=default;align=center;verticalAlign=middle;fontFamily=Helvetica;fontSize=11;fontColor=default;labelBackgroundColor=default;endArrow=none;endFill=0;" edge="1" parent="1" source="VzOfpZ_Bs2Y8hGM9rfYh-183" target="VzOfpZ_Bs2Y8hGM9rfYh-186">
          <mxGeometry relative="1" as="geometry" />
        </mxCell>
        <mxCell id="VzOfpZ_Bs2Y8hGM9rfYh-183" value="dimensões" style="ellipse;whiteSpace=wrap;html=1;align=center;fontFamily=Helvetica;fontSize=11;fontColor=default;labelBackgroundColor=default;" vertex="1" parent="1">
          <mxGeometry x="640" y="890" width="100" height="40" as="geometry" />
        </mxCell>
        <mxCell id="VzOfpZ_Bs2Y8hGM9rfYh-184" style="edgeStyle=orthogonalEdgeStyle;shape=connector;rounded=0;orthogonalLoop=1;jettySize=auto;html=1;entryX=0.688;entryY=0.969;entryDx=0;entryDy=0;entryPerimeter=0;strokeColor=default;align=center;verticalAlign=middle;fontFamily=Helvetica;fontSize=11;fontColor=default;labelBackgroundColor=default;endArrow=none;endFill=0;" edge="1" parent="1" source="VzOfpZ_Bs2Y8hGM9rfYh-183" target="VzOfpZ_Bs2Y8hGM9rfYh-173">
          <mxGeometry relative="1" as="geometry" />
        </mxCell>
        <mxCell id="VzOfpZ_Bs2Y8hGM9rfYh-185" value="altura" style="ellipse;whiteSpace=wrap;html=1;align=center;fontFamily=Helvetica;fontSize=11;fontColor=default;labelBackgroundColor=default;" vertex="1" parent="1">
          <mxGeometry x="520" y="960" width="100" height="40" as="geometry" />
        </mxCell>
        <mxCell id="VzOfpZ_Bs2Y8hGM9rfYh-186" value="largura" style="ellipse;whiteSpace=wrap;html=1;align=center;fontFamily=Helvetica;fontSize=11;fontColor=default;labelBackgroundColor=default;" vertex="1" parent="1">
          <mxGeometry x="640" y="1000" width="100" height="40" as="geometry" />
        </mxCell>
        <mxCell id="VzOfpZ_Bs2Y8hGM9rfYh-190" style="edgeStyle=orthogonalEdgeStyle;shape=connector;rounded=0;orthogonalLoop=1;jettySize=auto;html=1;entryX=1;entryY=0.5;entryDx=0;entryDy=0;strokeColor=default;align=center;verticalAlign=middle;fontFamily=Helvetica;fontSize=11;fontColor=default;labelBackgroundColor=default;endArrow=none;endFill=0;" edge="1" parent="1" source="VzOfpZ_Bs2Y8hGM9rfYh-187" target="VzOfpZ_Bs2Y8hGM9rfYh-183">
          <mxGeometry relative="1" as="geometry" />
        </mxCell>
        <mxCell id="VzOfpZ_Bs2Y8hGM9rfYh-187" value="profundidade" style="ellipse;whiteSpace=wrap;html=1;align=center;fontFamily=Helvetica;fontSize=11;fontColor=default;labelBackgroundColor=default;" vertex="1" parent="1">
          <mxGeometry x="740" y="940" width="100" height="40" as="geometry" />
        </mxCell>
      </root>
    </mxGraphModel>
  </diagram>
</mxfile>
